<svg width="174" height="174" viewBox="0 0 174 174" fill="none" xmlns="http://www.w3.org/2000/svg">
<path d="M79.8816 43.4623H65.425C63.377 43.4623 61.6615 42.7684 60.2785 41.3806C58.8955 39.9927 58.2015 38.2772 58.1967 36.234C58.1919 34.1908 58.8858 32.4753 60.2785 31.0875C61.6711 29.6996 63.3866 29.0057 65.425 29.0057H79.8816V14.5491C79.8816 12.5011 80.5755 10.7856 81.9634 9.40258C83.3512 8.01956 85.0667 7.32564 87.1099 7.32083C89.1531 7.31601 90.871 8.00992 92.2637 9.40258C93.6563 10.7952 94.3478 12.5107 94.3382 14.5491V29.0057H108.795C110.843 29.0057 112.561 29.6996 113.949 31.0875C115.336 32.4753 116.028 34.1908 116.023 36.234C116.018 38.2772 115.324 39.9951 113.941 41.3878C112.558 42.7804 110.843 43.4719 108.795 43.4623H94.3382V57.9189C94.3382 59.9669 93.6443 61.6848 92.2565 63.0727C90.8686 64.4605 89.1531 65.152 87.1099 65.1472C85.0667 65.1424 83.3512 64.4485 81.9634 63.0654C80.5755 61.6824 79.8816 59.9669 79.8816 57.9189V43.4623ZM50.9684 159.115C46.9929 159.115 43.5908 157.701 40.7621 154.872C37.9334 152.043 36.5167 148.639 36.5118 144.658C36.507 140.678 37.9238 137.276 40.7621 134.452C43.6004 131.628 47.0025 130.212 50.9684 130.202C54.9344 130.192 58.3389 131.609 61.182 134.452C64.0251 137.295 65.4395 140.697 65.425 144.658C65.4106 148.62 63.9962 152.024 61.182 154.872C58.3678 157.72 54.9633 159.134 50.9684 159.115ZM123.251 159.115C119.276 159.115 115.874 157.701 113.045 154.872C110.216 152.043 108.8 148.639 108.795 144.658C108.79 140.678 110.207 137.276 113.045 134.452C115.883 131.628 119.285 130.212 123.251 130.202C127.217 130.192 130.622 131.609 133.465 134.452C136.308 137.295 137.722 140.697 137.708 144.658C137.694 148.62 136.279 152.024 133.465 154.872C130.651 157.72 127.246 159.134 123.251 159.115ZM22.0552 29.0057H14.827C12.7789 29.0057 11.0634 28.3118 9.68041 26.924C8.29739 25.5361 7.60348 23.8206 7.59866 21.7774C7.59384 19.7342 8.28776 18.0187 9.68041 16.6309C11.0731 15.243 12.7886 14.5491 14.827 14.5491H26.7536C28.0788 14.5491 29.3438 14.9105 30.5485 15.6334C31.7532 16.3562 32.6567 17.3802 33.2591 18.7054L61.9916 79.6038H112.59L138.792 32.6199C139.395 31.4151 140.238 30.5116 141.322 29.9093C142.406 29.3069 143.611 29.0057 144.936 29.0057C147.707 29.0057 149.786 30.1815 151.174 32.5331C152.562 34.8847 152.591 37.2628 151.261 39.6675L125.42 86.4707C124.095 88.8801 122.319 90.7474 120.093 92.0726C117.866 93.3978 115.426 94.0604 112.77 94.0604H58.9196L50.9684 108.517H130.48C132.528 108.517 134.246 109.211 135.633 110.599C137.021 111.987 137.713 113.702 137.708 115.745C137.703 117.788 137.009 119.506 135.626 120.899C134.243 122.292 132.528 122.983 130.48 122.974H50.9684C45.5472 122.974 41.4199 120.624 38.5864 115.926C35.7529 111.228 35.6637 106.469 38.3189 101.65L48.0771 83.9408L22.0552 29.0057Z" fill="white"/>
</svg>
