<svg width="59" height="59" viewBox="0 0 59 59" fill="none" xmlns="http://www.w3.org/2000/svg">
<path d="M14.3813 42.0375C16.4709 40.4395 18.8063 39.1801 21.3876 38.259C23.9688 37.3379 26.673 36.8766 29.5001 36.875C32.3272 36.8733 35.0313 37.3347 37.6126 38.259C40.1938 39.1833 42.5293 40.4428 44.6188 42.0375C46.0529 40.3576 47.1698 38.4524 47.9695 36.3218C48.7693 34.1913 49.1684 31.9173 49.1668 29.5C49.1668 24.0507 47.2517 19.4101 43.4216 15.5784C39.5915 11.7467 34.951 9.83165 29.5001 9.83329C24.0491 9.83493 19.4086 11.7508 15.5785 15.5809C11.7485 19.411 9.83342 24.0507 9.83342 29.5C9.83342 31.9173 10.2333 34.1913 11.0331 36.3218C11.8329 38.4524 12.9489 40.3576 14.3813 42.0375ZM29.5001 31.9583C27.0827 31.9583 25.0439 31.129 23.3838 29.4705C21.7236 27.8119 20.8943 25.7731 20.8959 23.3541C20.8976 20.9351 21.7277 18.8963 23.3862 17.2378C25.0448 15.5792 27.0827 14.75 29.5001 14.75C31.9174 14.75 33.9562 15.5801 35.6164 17.2403C37.2766 18.9004 38.1059 20.9384 38.1042 23.3541C38.1026 25.7698 37.2733 27.8086 35.6164 29.4705C33.9595 31.1323 31.9207 31.9616 29.5001 31.9583ZM29.5001 54.0833C26.0994 54.0833 22.9036 53.4376 19.9126 52.1461C16.9216 50.8547 14.3199 49.1035 12.1074 46.8927C9.89488 44.6818 8.14372 42.0801 6.85392 39.0875C5.56411 36.0948 4.91839 32.899 4.91675 29.5C4.91511 26.1009 5.56083 22.9051 6.85392 19.9125C8.147 16.9199 9.89815 14.3181 12.1074 12.1073C14.3166 9.89639 16.9183 8.14524 19.9126 6.85379C22.9068 5.56235 26.1027 4.91663 29.5001 4.91663C32.8975 4.91663 36.0933 5.56235 39.0876 6.85379C42.0818 8.14524 44.6836 9.89639 46.8928 12.1073C49.102 14.3181 50.854 16.9199 52.1487 19.9125C53.4434 22.9051 54.0883 26.1009 54.0834 29.5C54.0785 32.899 53.4328 36.0948 52.1463 39.0875C50.8597 42.0801 49.1086 44.6818 46.8928 46.8927C44.677 49.1035 42.0753 50.8555 39.0876 52.1486C36.0999 53.4417 32.9041 54.0866 29.5001 54.0833Z" fill="#1B2E35"/>
</svg>
