<svg width="174" height="174" viewBox="0 0 174 174" fill="none" xmlns="http://www.w3.org/2000/svg">
<path d="M139.183 166.017C139.278 147.55 120.222 136.62 101.738 128.658C83.3227 120.73 77.4418 114.051 77.4418 99.7388C77.4418 91.1603 83.0625 93.9533 85.5259 78.2188C86.5668 71.696 91.5283 78.1147 92.4824 63.2215C92.4824 57.2885 89.7675 55.8139 89.7675 55.8139C89.7675 55.8139 91.1466 47.0272 91.6844 40.2615C92.2395 33.1749 88.2322 18.0562 71.7256 13.4156C68.8459 10.4578 66.8942 5.76521 75.7764 1.06392C56.3467 0.161833 51.8276 10.3277 41.4796 17.8047C32.6755 24.3622 30.2988 34.7449 30.7239 40.2702C31.2877 47.0359 32.6581 55.8226 32.6581 55.8226C32.6581 55.8226 29.9345 57.2972 29.9345 63.2302C30.8887 78.132 35.8675 71.7046 36.8997 78.2274C39.3631 93.962 44.9925 91.169 44.9925 99.7475C44.9925 114.06 43.1536 118.917 24.7301 126.845C6.24595 134.799 0.495117 147.55 0.590531 166.017C0.616553 171.542 0.495117 173.572 0.495117 173.572H139.278C139.278 173.572 139.157 171.542 139.183 166.017ZM147.952 86.832V60.8101H130.604V86.832H104.583V104.18H130.604V130.202H147.952V104.18H173.974V86.832H147.952Z" fill="white"/>
</svg>
