<svg width="164" height="162" viewBox="0 0 164 162" fill="none" xmlns="http://www.w3.org/2000/svg">
<path d="M89.4655 90.3976L106.621 80.033L123.776 90.3976L119.252 70.7991L134.333 57.7963L114.539 56.1003L106.621 37.6325L98.703 56.1003L78.9083 57.7963L93.99 70.7991L89.4655 90.3976ZM40.2614 161.065C36.114 161.693 32.3762 160.721 29.0482 158.148C25.7202 155.575 23.8023 152.213 23.2945 148.062L13.3029 65.7111C12.8002 61.5653 13.8057 57.8591 16.3193 54.5927C18.8329 51.3263 22.1634 49.4419 26.3109 48.9393L34.9829 47.8087V109.242C34.9829 117.534 37.9364 124.632 43.8434 130.537C49.7504 136.441 56.8513 139.394 65.1462 139.394H135.276C134.522 142.409 133.014 145.017 130.752 147.218C128.489 149.419 125.724 150.706 122.457 151.077L40.2614 161.065ZM65.1462 124.318C60.9988 124.318 57.4496 122.843 54.4986 119.893C51.5476 116.943 50.0696 113.393 50.0645 109.242V26.3257C50.0645 22.1799 51.5426 18.6321 54.4986 15.6823C57.4546 12.7324 61.0038 11.255 65.1462 11.25H148.096C152.243 11.25 155.795 12.7274 158.751 15.6823C161.707 18.6371 163.182 22.1849 163.177 26.3257V109.242C163.177 113.388 161.702 116.938 158.751 119.893C155.8 122.848 152.248 124.323 148.096 124.318H65.1462Z" fill="white"/>
</svg>
